<svg height="512pt" viewBox="-61 0 512 512" width="512pt" xmlns="http://www.w3.org/2000/svg"><path d="m216.214844 272.96875c-5.667969-5.667969-13.203125-8.789062-21.214844-8.789062s-15.546875 3.121093-21.214844 8.789062c-5.664062 5.664062-8.785156 13.199219-8.785156 21.210938 0 8.011718 3.121094 15.546874 8.785156 21.214843l21.214844 21.210938 21.214844-21.210938c5.664062-5.667969 8.785156-13.203125 8.785156-21.214843 0-8.011719-3.121094-15.546876-8.785156-21.210938zm0 0"/><path d="m195 190c-29.164062 0-55.710938-11.410156-75.414062-30h-29.585938v352h210v-352h-29.585938c-19.703124 18.589844-46.25 30-75.414062 30zm45.605469 192.214844c5.859375 5.855468 5.859375 15.351562 0 21.210937-2.929688 2.929688-6.765625 4.394531-10.605469 4.394531s-7.679688-1.464843-10.605469-4.394531l-24.394531-24.394531-24.394531 24.394531c-5.855469 5.859375-15.355469 5.859375-21.210938 0-5.859375-5.859375-5.859375-15.355469 0-21.210937l24.390625-24.394532-21.210937-21.214843c-11.332031-11.332031-17.574219-26.398438-17.574219-42.425781 0-16.027344 6.242188-31.09375 17.574219-42.425782 11.332031-11.332031 26.398437-17.574218 42.425781-17.574218s31.09375 6.242187 42.425781 17.574218c11.332031 11.332032 17.574219 26.398438 17.574219 42.425782 0 16.027343-6.242188 31.09375-17.574219 42.425781l-21.210937 21.214843zm0 0"/><path d="m195 160c44.113281 0 80-35.886719 80-80s-35.886719-80-80-80-80 35.886719-80 80 35.886719 80 80 80zm0 0"/><path d="m0 235v190c0 24.8125 20.1875 45 45 45 5.257812 0 10.304688-.914062 15-2.578125v-305.910156c-34.191406 6.964843-60 37.269531-60 73.488281zm0 0"/><path d="m330 161.507812v305.914063c4.695312 1.664063 9.742188 2.578125 15 2.578125 24.8125 0 45-20.1875 45-45v-190c0-36.21875-25.808594-66.523438-60-73.492188zm0 0"/></svg>